<svg width="200" height="200" viewBox="0 0 200 200" xmlns="http://www.w3.org/2000/svg">
  <!-- Arco superior azul claro -->
  <path d="M 60 60 A 56 56 0 0 1 140 60" fill="none" stroke="#5DADE2" stroke-width="12" stroke-linecap="round"/>

  <!-- Arco inferior azul oscuro -->
  <path d="M 140 140 A 56 56 0 0 1 60 140" fill="none" stroke="#2874A6" stroke-width="12" stroke-linecap="round"/>

  <!-- Letra S -->
  <path d="M 65 85 Q 70 75 85 75 Q 95 75 95 85 Q 95 92 85 95 Q 75 98 75 105 Q 75 115 85 115 Q 100 115 105 105" fill="none" stroke="#4a5568" stroke-width="8" stroke-linecap="round"/>

  <!-- Letra G -->
  <path d="M 130 75 Q 115 75 110 85 Q 110 95 110 105 Q 110 115 120 115 Q 130 115 130 105 L 130 95 L 120 95" fill="none" stroke="#4a5568" stroke-width="8" stroke-linecap="round"/>

  <!-- Letra M -->
  <path d="M 145 115 L 145 75 L 160 95 L 175 75 L 175 115" fill="none" stroke="#4a5568" stroke-width="8" stroke-linecap="round"/>
</svg>
