<?xml version="1.0" standalone="no"?>
<!DOCTYPE svg PUBLIC "-//W3C//DTD SVG 20010904//EN"
 "http://www.w3.org/TR/2001/REC-SVG-20010904/DTD/svg10.dtd">
<svg version="1.0" xmlns="http://www.w3.org/2000/svg"
 width="512.000000pt" height="512.000000pt" viewBox="0 0 512.000000 512.000000"
 preserveAspectRatio="xMidYMid meet">

<g transform="translate(0.000000,512.000000) scale(0.100000,-0.100000)"
fill="#000000" stroke="none">
<path d="M2745 4720 l-160 -160 47 0 c30 0 54 -6 69 -19 23 -19 24 -23 21
-148 -4 -166 -1 -163 -162 -163 -143 0 -158 8 -168 88 l-7 52 -170 -170 -170
-170 46 0 c73 0 79 -13 79 -168 0 -166 4 -162 -162 -162 -142 0 -158 9 -158
87 l0 48 -160 -160 -160 -160 0 -1477 0 -1478 -120 0 -120 0 0 1357 0 1358
-157 -157 -158 -158 3 -127 c4 -120 2 -130 -18 -156 l-22 -28 -135 2 -136 1
-168 -168 -169 -169 0 -876 0 -877 -79 -3 c-117 -6 -121 -12 -121 -161 0 -105
2 -120 20 -138 20 -20 33 -20 2413 -20 2306 0 2395 1 2410 18 14 15 17 41 17
140 0 156 -4 162 -120 162 l-80 0 0 1598 c0 1536 -1 1600 -18 1615 -17 15 -64
17 -464 17 -418 0 -446 -1 -461 -18 -16 -17 -17 -144 -17 -1615 l0 -1597 -120
0 -120 0 0 2140 c0 2127 0 2140 -20 2160 -19 19 -33 20 -343 20 l-322 0 -160
-160z m499 -181 c26 -20 26 -22 26 -145 0 -166 2 -164 -160 -164 -162 0 -160
-2 -160 165 0 166 -1 165 154 165 99 0 117 -3 140 -21z m-542 -526 c16 -14 18
-33 18 -143 0 -170 5 -164 -152 -168 -112 -3 -126 -2 -148 16 -24 20 -25 25
-25 145 0 170 -3 167 163 167 103 0 129 -3 144 -17z m548 -3 c18 -18 20 -33
20 -144 0 -123 0 -125 -26 -145 -23 -18 -41 -21 -131 -21 -99 0 -138 9 -155
34 -4 6 -8 68 -8 138 0 161 -4 158 162 158 105 0 120 -2 138 -20z m-1097 -528
c14 -13 17 -34 17 -140 0 -167 5 -162 -161 -162 -163 0 -159 -4 -159 166 0
163 3 166 180 157 74 -4 110 -10 123 -21z m549 1 c16 -14 18 -33 18 -144 0
-163 4 -159 -164 -159 -161 0 -156 -5 -156 161 0 103 3 131 16 143 23 24 259
23 286 -1z m548 -3 c18 -18 20 -33 20 -140 0 -161 1 -160 -158 -160 -165 0
-162 -3 -162 157 0 168 -5 163 157 163 110 0 125 -2 143 -20z m1200 0 c18 -18
20 -33 20 -140 0 -162 2 -160 -162 -160 -163 0 -158 -5 -158 158 0 167 -5 162
157 162 110 0 125 -2 143 -20z m-2317 -511 c12 -7 25 -17 29 -23 4 -6 8 -66 8
-133 0 -164 1 -163 -157 -163 -106 0 -119 2 -140 22 -22 20 -23 29 -23 144 0
120 0 123 26 143 23 18 41 21 131 21 59 0 114 -5 126 -11z m561 -10 c26 -20
26 -22 26 -145 0 -166 2 -164 -158 -164 -166 0 -162 -4 -162 159 0 128 6 152
40 164 8 3 63 6 121 6 93 1 110 -2 133 -20z m550 0 c26 -20 26 -23 26 -142 0
-67 -4 -127 -8 -133 -17 -26 -56 -34 -161 -34 -152 0 -151 -1 -151 164 0 123
0 125 26 145 23 18 41 21 134 21 93 0 111 -3 134 -21z m1200 0 c26 -20 26 -22
26 -144 0 -123 0 -124 -27 -145 -25 -20 -37 -21 -146 -18 -151 4 -147 0 -147
162 0 67 4 126 8 132 17 26 53 33 153 34 93 0 110 -3 133 -21z m-3488 -530
c17 -18 19 -37 19 -145 0 -160 2 -158 -141 -162 -182 -6 -184 -4 -184 165 0
168 -5 163 160 163 116 0 128 -2 146 -21z m1194 1 c18 -18 20 -33 20 -142 0
-163 5 -158 -161 -158 -163 0 -159 -4 -159 162 0 159 -1 158 160 158 107 0
122 -2 140 -20z m548 4 c21 -14 22 -22 22 -141 0 -168 5 -163 -158 -163 -167
0 -162 -5 -162 161 0 162 -3 159 160 159 88 0 121 -4 138 -16z m547 -9 c24
-23 25 -30 25 -141 0 -158 4 -154 -158 -154 -167 0 -162 -5 -162 157 0 164 -1
163 155 163 110 0 117 -1 140 -25z m1200 0 c24 -23 25 -30 25 -137 0 -161 3
-158 -157 -158 -169 0 -163 -5 -163 161 0 162 -3 159 158 159 107 0 114 -1
137 -25z m-3489 -526 c16 -18 19 -37 19 -139 0 -162 2 -160 -163 -160 -167 0
-162 -5 -162 158 0 167 -5 162 160 162 116 0 128 -2 146 -21z m1196 4 c16 -14
18 -33 18 -144 0 -163 4 -159 -162 -159 -159 0 -158 -1 -158 160 0 162 -2 160
162 160 99 0 125 -3 140 -17z m550 0 c16 -14 18 -33 18 -140 0 -165 2 -163
-162 -163 -163 0 -158 -5 -158 158 0 167 -5 162 158 162 103 0 129 -3 144 -17z
m548 -3 c18 -18 20 -33 20 -140 0 -107 -2 -122 -20 -140 -18 -18 -33 -20 -140
-20 -161 0 -160 -1 -160 160 0 107 2 122 20 140 18 18 33 20 140 20 107 0 122
-2 140 -20z m1200 0 c18 -18 20 -33 20 -140 0 -161 1 -160 -158 -160 -165 0
-162 -3 -162 157 0 168 -5 163 157 163 110 0 125 -2 143 -20z m-1516 -576 l26
-27 0 -368 0 -369 -400 0 -400 0 0 370 0 371 26 24 27 25 347 0 347 0 27 -26z"/>
</g>
</svg>
